<svg width="1220" height="240" viewBox="0 0 1220 240" xmlns="http://www.w3.org/2000/svg">
  <defs>
    <linearGradient id="markGrad" x1="0%" y1="0%" x2="100%" y2="100%">
      <stop offset="0%" stop-color="#1B2A41"/>
      <stop offset="100%" stop-color="#2D4A63"/>
    </linearGradient>
  </defs>

  <!-- Icon mark: stylized "V" beam form with circuit node accents -->
  <g transform="translate(20,20)">
    <rect x="0" y="0" width="200" height="200" rx="24" fill="url(#markGrad)"/>

    <!-- V beam shape (construction girder feel) -->
    <path d="M 40 45 L 75 45 L 100 130 L 125 45 L 160 45 L 115 165 L 85 165 Z"
          fill="#F2A93B"/>

    <!-- circuit accents (technology) -->
    <circle cx="52" cy="45" r="6" fill="#F2A93B"/>
    <circle cx="148" cy="45" r="6" fill="#F2A93B"/>
    <circle cx="100" cy="165" r="6" fill="#F2A93B"/>
    <line x1="52" y1="45" x2="52" y2="30" stroke="#E8EDF1" stroke-width="3" stroke-linecap="round"/>
    <line x1="148" y1="45" x2="148" y2="30" stroke="#E8EDF1" stroke-width="3" stroke-linecap="round"/>
    <line x1="100" y1="165" x2="100" y2="180" stroke="#E8EDF1" stroke-width="3" stroke-linecap="round"/>
    <circle cx="52" cy="24" r="4" fill="#E8EDF1"/>
    <circle cx="148" cy="24" r="4" fill="#E8EDF1"/>
    <circle cx="100" cy="186" r="4" fill="#E8EDF1"/>
  </g>

  <!-- Wordmark (scaled ~75% larger than original) -->
  <g transform="translate(260,0)">
    <text x="0" y="105" font-family="Arial, Helvetica, sans-serif" font-size="102" font-weight="700" letter-spacing="3.5" fill="#1B2A41">VANDELAY</text>
    <text x="0" y="175" font-family="Arial, Helvetica, sans-serif" font-size="46" font-weight="500" letter-spacing="7" fill="#4A5D6B">CONSTRUCTION TECHNOLOGIES</text>
    <rect x="0" y="201" width="920" height="7" fill="#F2A93B"/>
  </g>
</svg>
